<svg width="277" height="277" xmlns="http://www.w3.org/2000/svg"><g fill="none" fill-rule="evenodd"><g fill-rule="nonzero"><path fill="#2D2D2D" d="M228.55 261.1h15.47v15.35h-15.47zM228.55 245.74h15.47v15.36h-15.47z"/><path fill="#5E4736" d="M228.55 199.67h15.47v15.36h-15.47zM228.55 168.95h15.47v15.35h-15.47zM228.55 76.8h15.47v15.35h-15.47z"/><path fill="#2D2D2D" d="M213.09 261.1h15.46v15.35h-15.46zM213.09 245.74h15.46v15.36h-15.46zM213.09 230.38h15.46v15.36h-15.46z"/><path fill="#232323" d="M213.09 215.03h15.46v15.35h-15.46z"/><path fill="#4F3B2C" d="M213.09 199.67h15.46v15.36h-15.46z"/><path fill="#5E4736" d="M213.09 184.3h15.46v15.36h-15.46zM213.09 138.23h15.46v15.36h-15.46zM213.09 122.88h15.46v15.35h-15.46z"/><path fill="#564130" d="M213.09 76.8h15.46v15.35h-15.46z"/><path fill="#634D38" d="M213.09 61.44h15.46V76.8h-15.46zM213.09 46.08h15.46v15.36h-15.46z"/><path fill="#2D2D2D" d="M197.61 261.1h15.47v15.35h-15.47zM197.61 245.74h15.47v15.36h-15.47zM197.61 230.38h15.47v15.36h-15.47zM197.61 215.03h15.47v15.35h-15.47zM197.61 199.67h15.47v15.36h-15.47z"/><path fill="#564130" d="M197.61 184.3h15.47v15.36h-15.47z"/><path fill="#5E4736" d="M197.61 168.95h15.47v15.35h-15.47zM197.61 153.59h15.47v15.36h-15.47zM197.61 138.23h15.47v15.36h-15.47z"/><path fill="#564130" d="M197.61 122.88h15.47v15.35h-15.47zM197.61 107.51h15.47v15.36h-15.47zM197.61 92.15h15.47v15.36h-15.47z"/><path fill="#725846" d="M197.61 76.8h15.47v15.35h-15.47zM197.61 61.44h15.47V76.8h-15.47z"/><path fill="#634D38" d="M197.61 46.08h15.47v15.36h-15.47zM197.61 30.71h15.47v15.36h-15.47z"/><path fill="#5B2921" d="M182.14 261.1h15.47v15.35h-15.47zM182.14 245.74h15.47v15.36h-15.47zM182.14 230.38h15.47v15.36h-15.47zM182.14 215.03h15.47v15.35h-15.47z"/><path fill="#2D2D2D" d="M182.14 199.67h15.47v15.36h-15.47z"/><path fill="#4F3B2C" d="M182.14 184.3h15.47v15.36h-15.47z"/><path fill="#564130" d="M182.14 168.95h15.47v15.35h-15.47zM182.14 153.59h15.47v15.36h-15.47z"/><path fill="#E0C9B6" d="M182.14 138.23h15.47v15.36h-15.47zM182.14 122.88h15.47v15.35h-15.47z"/><path fill="#E8EFEF" d="M182.14 107.51h15.47v15.36h-15.47z"/><path fill="#9CA0A0" d="M182.14 92.15h15.47v15.36h-15.47z"/><path fill="#E4EAEA" d="M182.14 76.8h15.47v15.35h-15.47z"/><path fill="#564130" d="M182.14 61.44h15.47V76.8h-15.47z"/><path fill="#725846" d="M182.14 46.08h15.47v15.36h-15.47z"/><path fill="#634D38" d="M182.14 30.71h15.47v15.36h-15.47zM182.14 15.36h15.47v15.35h-15.47z"/><path fill="#2D2D2D" d="M166.68 261.1h15.46v15.35h-15.46zM166.68 245.74h15.46v15.36h-15.46zM166.68 230.38h15.46v15.36h-15.46zM166.68 215.03h15.46v15.35h-15.46z"/><path fill="#5B2921" d="M166.68 199.67h15.46v15.36h-15.46zM166.68 184.3h15.46v15.36h-15.46z"/><path fill="#4F3B2C" d="M166.68 168.95h15.46v15.35h-15.46z"/><path fill="#E0C9B6" d="M166.68 153.59h15.46v15.36h-15.46z"/><path fill="#E8B3B3" d="M166.68 138.23h15.46v15.36h-15.46z"/><path fill="#EFDBD0" d="M166.68 122.88h15.46v15.35h-15.46zM166.68 107.51h15.46v15.36h-15.46z"/><path fill="#66615D" d="M166.68 92.15h15.46v15.36h-15.46z"/><path fill="#EFDBD0" d="M166.68 76.8h15.46v15.35h-15.46zM166.68 61.44h15.46V76.8h-15.46zM166.68 46.08h15.46v15.36h-15.46z"/><path fill="#725846" d="M166.68 30.71h15.46v15.36h-15.46z"/><path fill="#634D38" d="M166.68 15.36h15.46v15.35h-15.46z"/><path fill="#2D2D2D" d="M151.21 261.1h15.47v15.35h-15.47zM151.21 245.74h15.47v15.36h-15.47z"/><path fill="#E0C9B6" d="M151.21 230.38h15.47v15.36h-15.47zM151.21 215.03h15.47v15.35h-15.47zM151.21 199.67h15.47v15.36h-15.47z"/><path fill="#D1B8A7" d="M151.21 184.3h15.47v15.36h-15.47z"/><path fill="#C6AB99" d="M151.21 168.95h15.47v15.35h-15.47z"/><path fill="#E0C9B6" d="M151.21 153.59h15.47v15.36h-15.47zM151.21 138.23h15.47v15.36h-15.47zM151.21 122.88h15.47v15.35h-15.47zM151.21 107.51h15.47v15.36h-15.47z"/><path fill="#E8EFEF" d="M151.21 92.15h15.47v15.36h-15.47z"/><path fill="#E4EAEA" d="M151.21 76.8h15.47v15.35h-15.47z"/><path fill="#EFDBD0" d="M151.21 61.44h15.47V76.8h-15.47zM151.21 46.08h15.47v15.36h-15.47z"/><path fill="#725846" d="M151.21 30.71h15.47v15.36h-15.47z"/><path fill="#634D38" d="M151.21 15.36h15.47v15.35h-15.47z"/><path fill="#564130" d="M151.21 0h15.47v15.36h-15.47z"/><path fill="#2D2D2D" d="M135.74 261.1h15.47v15.35h-15.47zM135.74 245.74h15.47v15.36h-15.47zM135.74 230.38h15.47v15.36h-15.47z"/><path fill="#E8D1C5" d="M135.74 215.03h15.47v15.35h-15.47zM135.74 199.67h15.47v15.36h-15.47zM135.74 184.3h15.47v15.36h-15.47z"/><path fill="#C6AB99" d="M135.74 168.95h15.47v15.35h-15.47z"/><path fill="#E0C9B6" d="M135.74 153.59h15.47v15.36h-15.47zM135.74 138.23h15.47v15.36h-15.47zM135.74 122.88h15.47v15.35h-15.47z"/><path fill="#E8EFEF" d="M135.74 107.51h15.47v15.36h-15.47z"/><path fill="#9CA0A0" d="M135.74 92.15h15.47v15.36h-15.47z"/><path fill="#D9E2E2" d="M135.74 76.8h15.47v15.35h-15.47z"/><path fill="#564130" d="M135.74 61.44h15.47V76.8h-15.47z"/><path fill="#EFDBD0" d="M135.74 46.08h15.47v15.36h-15.47z"/><path fill="#634D38" d="M135.74 30.71h15.47v15.36h-15.47zM135.74 15.36h15.47v15.35h-15.47z"/><path fill="#564130" d="M135.74 0h15.47v15.36h-15.47z"/><path fill="#2D2D2D" d="M120.28 261.1h15.46v15.35h-15.46zM120.28 245.74h15.46v15.36h-15.46zM120.28 230.38h15.46v15.36h-15.46zM120.28 215.03h15.46v15.35h-15.46z"/><path fill="#EDD4C8" d="M120.28 199.67h15.46v15.36h-15.46zM120.28 184.3h15.46v15.36h-15.46zM120.28 168.95h15.46v15.35h-15.46z"/><path fill="#C6AB99" d="M120.28 153.59h15.46v15.36h-15.46z"/><path fill="#E0C9B6" d="M120.28 138.23h15.46v15.36h-15.46zM120.28 122.88h15.46v15.35h-15.46zM120.28 107.51h15.46v15.36h-15.46z"/><path fill="#D9E2E2" d="M120.28 92.15h15.46v15.36h-15.46zM120.28 76.8h15.46v15.35h-15.46z"/><path fill="#EFDBD0" d="M120.28 61.44h15.46V76.8h-15.46z"/><path fill="#634D38" d="M120.28 46.08h15.46v15.36h-15.46zM120.28 30.71h15.46v15.36h-15.46z"/><path fill="#564130" d="M120.28 15.36h15.46v15.35h-15.46zM120.28 0h15.46v15.36h-15.46z"/><path fill="#2D2D2D" d="M104.81 261.1h15.47v15.35h-15.47zM104.81 245.74h15.47v15.36h-15.47zM104.81 230.38h15.47v15.36h-15.47zM104.81 215.03h15.47v15.35h-15.47zM104.81 199.67h15.47v15.36h-15.47z"/><path fill="#232323" d="M104.81 184.3h15.47v15.36h-15.47z"/><path fill="#4F3B2C" d="M104.81 168.95h15.47v15.35h-15.47zM104.81 153.59h15.47v15.36h-15.47z"/><path fill="#C6AB99" d="M104.81 138.23h15.47v15.36h-15.47z"/><path fill="#E0C9B6" d="M104.81 122.88h15.47v15.35h-15.47zM104.81 107.51h15.47v15.36h-15.47z"/><path fill="#66615D" d="M104.81 92.15h15.47v15.36h-15.47z"/><path fill="#EFDBD0" d="M104.81 76.8h15.47v15.35h-15.47z"/><path fill="#634D38" d="M104.81 61.44h15.47V76.8h-15.47zM104.81 46.08h15.47v15.36h-15.47z"/><path fill="#564130" d="M104.81 30.71h15.47v15.36h-15.47zM104.81 15.36h15.47v15.35h-15.47z"/><path fill="#4F3B2C" d="M104.81 0h15.47v15.36h-15.47z"/><path fill="#2D2D2D" d="M89.34 261.1h15.47v15.35H89.34zM89.34 245.74h15.47v15.36H89.34zM89.34 230.38h15.47v15.36H89.34zM89.34 215.03h15.47v15.35H89.34z"/><path fill="#232323" d="M89.34 199.67h15.47v15.36H89.34z"/><path fill="#4F3B2C" d="M89.34 184.3h15.47v15.36H89.34z"/><path fill="#564130" d="M89.34 168.95h15.47v15.35H89.34zM89.34 153.59h15.47v15.36H89.34zM89.34 138.23h15.47v15.36H89.34z"/><path fill="#4F3B2C" d="M89.34 122.88h15.47v15.35H89.34z"/><path fill="#E0C9B6" d="M89.34 107.51h15.47v15.36H89.34zM89.34 92.15h15.47v15.36H89.34z"/><path fill="#5E4736" d="M89.34 76.8h15.47v15.35H89.34zM89.34 61.44h15.47V76.8H89.34z"/><path fill="#564130" d="M89.34 46.08h15.47v15.36H89.34zM89.34 30.71h15.47v15.36H89.34z"/><path fill="#4F3B2C" d="M89.34 15.36h15.47v15.35H89.34z"/><path fill="#2D2D2D" d="M73.88 261.1h15.46v15.35H73.88zM73.88 245.74h15.46v15.36H73.88zM73.88 230.38h15.46v15.36H73.88z"/><path fill="#303030" d="M73.88 215.03h15.46v15.35H73.88z"/><path fill="#232323" d="M73.88 199.67h15.46v15.36H73.88z"/><path fill="#4F3B2C" d="M73.88 184.3h15.46v15.36H73.88z"/><path fill="#5E4736" d="M73.88 168.95h15.46v15.35H73.88zM73.88 153.59h15.46v15.36H73.88zM73.88 138.23h15.46v15.36H73.88zM73.88 122.88h15.46v15.35H73.88zM73.88 107.51h15.46v15.36H73.88zM73.88 92.15h15.46v15.36H73.88zM73.88 76.8h15.46v15.35H73.88z"/><path fill="#564130" d="M73.88 61.44h15.46V76.8H73.88zM73.88 46.08h15.46v15.36H73.88z"/><path fill="#4F3B2C" d="M73.88 30.71h15.46v15.36H73.88z"/><path fill="#2D2D2D" d="M58.4 261.1h15.47v15.35H58.4zM58.4 245.74h15.47v15.36H58.4z"/><path fill="#303030" d="M58.4 230.38h15.47v15.36H58.4z"/><path fill="#232323" d="M58.4 215.03h15.47v15.35H58.4z"/><path fill="#4F3B2C" d="M58.4 199.67h15.47v15.36H58.4z"/><path fill="#564130" d="M58.4 184.3h15.47v15.36H58.4z"/><path fill="#5E4736" d="M58.4 168.95h15.47v15.35H58.4zM58.4 153.59h15.47v15.36H58.4zM58.4 138.23h15.47v15.36H58.4z"/><path fill="#564130" d="M58.4 122.88h15.47v15.35H58.4zM58.4 107.51h15.47v15.36H58.4z"/><path fill="#5E4736" d="M58.4 92.15h15.47v15.36H58.4zM58.4 76.8h15.47v15.35H58.4z"/><path fill="#564130" d="M58.4 61.44h15.47V76.8H58.4z"/><path fill="#4F3B2C" d="M58.4 46.08h15.47v15.36H58.4z"/><path fill="#2D2D2D" d="M42.93 261.1H58.4v15.35H42.93z"/><path fill="#232323" d="M42.93 245.74H58.4v15.36H42.93zM42.93 230.38H58.4v15.36H42.93z"/><path fill="#4F3B2C" d="M42.93 215.03H58.4v15.35H42.93z"/><path fill="#564130" d="M42.93 199.67H58.4v15.36H42.93z"/><path fill="#5E4736" d="M42.93 184.3H58.4v15.36H42.93zM42.93 122.88H58.4v15.35H42.93z"/><path fill="#564130" d="M42.93 107.51H58.4v15.36H42.93zM42.93 92.15H58.4v15.36H42.93z"/><path fill="#5E4736" d="M42.93 76.8H58.4v15.35H42.93z"/><path fill="#232323" d="M27.47 261.1h15.46v15.35H27.47zM27.47 245.74h15.46v15.36H27.47z"/><path fill="#5E4736" d="M27.47 215.03h15.46v15.35H27.47zM27.47 122.88h15.46v15.35H27.47zM27.47 46.08h15.46v15.36H27.47zM12 184.3h15.47v15.36H12z"/><path fill="#E8EFEF" d="M120.27 107.51h15.47v15.36h-15.47z"/><path fill="#D9E2E2" d="M120.28 107.51h15.46v15.36h-15.46z"/></g><path d="M0 0h277v277H0z"/></g></svg>
