<svg version="1.0" xmlns="http://www.w3.org/2000/svg" width="1477.333" height="1477.333" viewBox="0 0 1108 1108"><path d="M459.2 28.3c0 15.5-.1 29.3-.1 30.7l-.1 2.5h-61.5V92l-.1 30.5-30.9.5-31 .5v61l-31-.1h-31l.1 61.3V307l-4.5.1c-2.5 0-16.5.1-31 .2l-26.4.2-.1 92-.1 92H150l-.1 19.2v35.8l.1 6.6 8-.3c4.4-.2 8 0 8 .3s1 .4 2.3.2c4.4-.8 61.7-.8 61.7 0 0 .5.4.6.9.3.7-.5 27-.9 39.6-.7l3.1.1v184l-2.5.1c-1.5 0-15.2 0-30.6.1-15.4 0-28.2.4-28.5.8-.3.5-.5 28.1-.4 61.4l.1 60.6-3.1.1c-8.6.1-34.2 0-35.1-.1-.5-.1-1.4-.1-2 0-.5.1-5.6.2-11.2.2H150v12.9c-.1 16.6-.1 45.5 0 47.1 0 1 6.8 1.3 30.9 1.3h30.8v62l-30.9-.3c-30.4-.3-30.8-.2-30.8 1.8 0 1.1-.1 8.3-.1 16 0 7.7.1 34.4.1 59.4v45.3h433c398.1 0 433.1-.1 432.9-1.6-.1-.9 0-1.8.1-2.1.5-1.3.4-11-.1-11-.4 0-.3-1.6.1-3.5.4-2 .4-3.8-.1-4.1-.5-.3-.5-1.3.1-2.5.7-1.2.7-1.9.1-1.9s-.7-.9-.3-2.3c.9-2.7.8-12-.2-13.6-.4-.6-.4-1.1.1-1.1 1.2 0 1-12.4-.2-13.2-.6-.5-.5-.8.4-.8 1 0 1.1-.3.2-1.3-.6-.8-.8-1.7-.4-2 .8-.9.8-8.5 0-9.3-.4-.4-.2-1.5.4-2.5.7-1.3.6-1.9-.1-1.9-.6 0-.8-.5-.4-1.1.8-1.3.9-11.7.1-12.5-.3-.4-.2-1.7.3-3s.5-2.6.1-2.9c-.5-.3-.6-2-.2-3.8.5-1.8.5-4.1.1-5.2-.4-1.1-.4-3 .1-4.2.5-1.3.4-2.5-.2-2.8-.5-.4-.7-1-.4-1.5 1-1.6 1.2-8.1.3-8.6-.5-.3-.6-1-.3-1.5.4-.5-11.7-.9-31-.9-23.6 0-31.4-.3-30.9-1.2.4-.6.7-28.2.7-61.4v-60.2h26.2c14.4.1 26.7-.2 27.3-.6.6-.3 1.3-.2 1.6.3.5.8 5.5.6 6.4-.3.6-.7.8-7.7.1-8.1-.4-.3-.4-2 0-3.8.5-1.8.5-4.1.1-5.2-.4-1.1-.4-3 .1-4.2.5-1.2.4-2.5 0-2.8-.5-.3-.6-2-.2-3.8.5-1.8.5-4.1.1-5.2-.4-1.1-.4-3 .1-4.2.5-1.2.4-2.5 0-2.8-.5-.3-.6-2-.2-3.8.5-1.8.5-4.1.1-5.2-.4-1.1-.4-3 .1-4.1.4-1.2.5-2.5.1-2.9-.3-.3-.7-1.6-.7-2.8v-2.1h-30c-28.9 0-33.3-.4-31.8-3 .3-.5.6-13.4.6-28.7-.1-19.5.3-28.1 1.1-28.7.6-.5 14.2-.9 30.1-1 16 0 29.3-.1 29.6-.1 1.1-.1 1.6-4.6.9-6.7-.4-1-.4-2.9.1-4.1.5-1.2.4-2.5 0-2.8-.5-.3-.6-2-.2-3.8.5-1.8.5-4.1.1-5.2-.4-1.1-.4-3 .1-4.2.5-1.2.4-2.5 0-2.8-.5-.3-.6-2-.2-3.8.5-1.8.5-4.1.1-5.2-.4-1.1-.4-3 .1-4.2.5-1.3.4-2.5-.2-2.8-.5-.4-.7-1.1-.3-1.6 1-1.6 1.1-6.9.2-6.9-.5 0-.4-.8.1-1.8.7-1.3.6-2.5-.3-3.8-1.3-1.8-2.9-1.9-30.5-1.8-25.8.1-29.4.3-30.9 1.7-.9 1-1.2 1.7-.7 1.7 1.1 0 1.2 56.6.2 57.7-1.1 1.1-60.6.9-61-.2-.2-.6-.3-14.2-.3-30.3.1-16-.3-29.2-.8-29.2s-.4-.6.1-1.3c.5-.7.9-14.3.8-31.2l-.1-30h30.8c26.7 0 30.8-.2 30.9-1.5 0-.8.1-28.4.2-61.2.1-39.1-.1-59.9-.8-60.1-.5-.2-14.5-.3-31-.3l-30.1.1.1-59c.1-32.4-.3-60-.7-61.3-.5-1.5-.4-2.1.2-1.7.6.3 1 .3 1-.2 0-.4 27.6-.8 61.4-.7h61.4l.4-2.1c.3-1.2.1-3-.2-4.1-.4-1-.4-2.9.1-4.1.5-1.2.4-2.5 0-2.8-.5-.3-.6-2-.2-3.8.5-1.8.5-4.1.1-5.2-.4-1.1-.4-3 .1-4.2.5-1.2.4-2.5 0-2.8-.5-.3-.6-2-.2-3.8.5-1.8.5-4.1.1-5.2-.4-1.1-.4-3 .1-4.2.5-1.3.4-2.5-.2-2.8-.5-.4-.7-1.1-.3-1.6.9-1.5 1.1-7.8.2-7.3-.5.3-.4-.5.1-1.8.5-1.4.5-3.1 0-4-.8-1.5-4.1-1.6-28.7-1.6-15.2 0-28.9-.1-30.3-.1l-2.6-.1-.1-59.8c0-32.8-.1-60.4-.1-61.3-.1-1.4-3.6-1.5-30.8-1.5h-30.8v-60.9l-31-.5-31-.5v-30c.1-16.5-.3-30.2-.7-30.5-.4-.3-28.2-.6-61.8-.5h-61l-.1-2.5c0-1.4-.1-15.2-.1-30.8V0H459.2v28.3zm250.9 156.2l58.5-.1-.1 60c0 33.1.1 60.8.3 61.6.3 1.3 4.3 1.5 29.7 1.4 16.1-.1 29.9-.3 30.7-.6 1.1-.5 1.3 25.1 1.3 153.6v154.1l-29.5-.1c-16.2-.1-30.2 0-31 .2-1.3.3-1.5 4.5-1.4 30.2 0 16.4.3 30.3.8 31 .5.8.2 1-1 .5-2.4-.9-57.4-1-60.1-.1-1.3.4-2.3.4-2.3 0s-13.4-.6-29.7-.4c-16.4.1-30.2.2-30.8.2-.5 0-14 0-30-.1h-30.7c-1.7.1-1.8 2.3-1.8 30.6V737l2.3.1c1.2 0 29 .1 61.8.1l59.6.1-.1 122.6-.1 122.6-29.8.5c-16.3.3-30.2.3-30.7.2-.6-.2-1-11.5-1-30.7 0-23.3-.3-30.4-1.2-30.7-2-.7-59.2-.3-60.3.4-.7.4-.9-10-.7-30.7l.3-31.3-4.6.2c-2.6.1-4.9-.2-5.1-.6-.3-.5-1-.5-1.6-.2-.8.5-42.1.9-49.5.5-1-.1-1.3-19.6-1.3-92.3l.1-92.3h16.4c9.1 0 16.5.4 16.5.8 0 .5.5.5 1.1.1 1.6-1 8.9-1.2 9.5-.2.3.4 1.2.4 2.1.1.8-.3 4.8-.7 8.7-.7l7.1-.1.3-30.5.2-30.6h-61.5l-.2-30.3c-.2-16.8-.5-30.6-.7-30.8-.2-.2-14.1-.4-30.8-.4h-30.5v-30c0-16.4-.3-30.3-.7-30.7-.4-.4-14.3-.7-30.9-.7h-30.2l-.1-60c-.1-33 0-60.7.2-61.5.3-1.3 4.6-1.5 30.9-1.4H459l.1-2.5c0-1.4.1-15.2.2-30.6l.2-28 30.3-.1c16.6-.1 30.4-.3 30.7-.6.3-.2.5-14 .5-30.6l.1-30.2 3.7-.1c2 0 16-.1 31-.1l27.2-.1v-61.3h32c17.6.1 32-.2 32-.6 0-.4 1-.4 2.3 0 1.2.4 28.5.7 60.8.7zM149.9 197.2v35.7l.1 12.8 30.8-.1 30.7-.1.1-30.3c.1-16.6-.2-30.3-.5-30.3-.3-.1-14.2-.3-30.8-.4l-30.3-.1-.1 12.8zM88 767.9v30.7h30.8l30.7-.1v-61l-30.7-.1-30.8-.1v30.6z"/></svg>
