<svg xmlns="http://www.w3.org/2000/svg" viewBox="0 0 340.3 860.09"><defs><style>.cls-1{fill:#939394}.cls-2{fill:#9f9fa0}.cls-3{fill:#b5b5b6}.cls-4{fill:#e0c9b6}.cls-5{fill:#d1b8a7}.cls-6{fill:#9a9a9d}.cls-7{fill:#c6001d}.cls-8{fill:#e40026}.cls-9{fill:#a8a8aa}.cls-11{fill:#dfe6e8}.cls-12{fill:#e8edef}.cls-13{fill:#2d2d2d}.cls-14{fill:#5e4736}.cls-15{fill:#638cc6}.cls-16{fill:#7197d3}.cls-17{fill:#232323}.cls-18{fill:#4f3b2c}.cls-19{fill:#564130}.cls-20{fill:#634d38}.cls-21{fill:#e5e0dc}.cls-22{fill:#d4d2f9}.cls-23{fill:#adadaf}.cls-24{fill:#725846}.cls-25{fill:#d6d6d6}.cls-27{fill:#5480b5}.cls-28{fill:#5b2921}.cls-29{fill:#e8efef}.cls-30{fill:#9ca0a0}.cls-31{fill:#e4eaea}.cls-32{fill:#c6c6c6}.cls-33{fill:#507ea5}.cls-34{fill:#4977a5}.cls-36{fill:#efdbd0}.cls-37{fill:#66615d}.cls-38{fill:#c6ab99}.cls-40{fill:#d9e2e2}.cls-42{fill:#d8b356}.cls-44{fill:#54241f}.cls-45{fill:#303030}.cls-46{fill:#602c26}.cls-47{fill:#66312d}.cls-48{fill:#6b3634}</style></defs><path class="cls-1" d="M324.83 399.33h15.47v15.36h-15.47z"/><path class="cls-1" d="M324.83 383.97h15.47v15.36h-15.47zm0-15.36h15.47v15.36h-15.47zm0-15.36h15.47v15.35h-15.47zm0-15.36h15.47v15.36h-15.47z"/><path class="cls-2" d="M324.83 322.53h15.47v15.36h-15.47z"/><path class="cls-2" d="M324.83 307.18h15.47v15.35h-15.47z"/><path class="cls-3" d="M324.83 291.82h15.47v15.36h-15.47z"/><path class="cls-4" d="M309.35 414.69h15.47v15.35h-15.47z"/><path class="cls-5" d="M309.35 399.33h15.47v15.36h-15.47z"/><path class="cls-1" d="M309.35 383.97h15.47v15.36h-15.47z"/><path class="cls-6" d="M309.35 368.61h15.47v15.36h-15.47z"/><path class="cls-2" d="M309.35 353.25h15.47v15.35h-15.47zm0-15.36h15.47v15.36h-15.47z"/><path class="cls-7" d="M309.35 322.53h15.47v15.36h-15.47z"/><path class="cls-2" d="M309.35 307.18h15.47v15.35h-15.47z"/><path class="cls-3" d="M309.35 291.82h15.47v15.36h-15.47z"/><path class="cls-4" d="M293.89 414.69h15.46v15.35h-15.46zm0-15.36h15.46v15.36h-15.46z"/><path class="cls-6" d="M293.89 383.97h15.46v15.36h-15.46z"/><path class="cls-2" d="M293.89 368.61h15.46v15.36h-15.46zm0-15.36h15.46v15.35h-15.46z"/><path class="cls-7" d="M293.89 337.89h15.46v15.36h-15.46z"/><path class="cls-2" d="M293.89 322.53h15.46v15.36h-15.46z"/><path class="cls-2" d="M293.89 307.18h15.46v15.35h-15.46z"/><path class="cls-3" d="M293.89 291.82h15.46v15.36h-15.46z"/><path class="cls-4" d="M278.42 414.69h15.47v15.35h-15.47z"/><path class="cls-1" d="M278.42 399.33h15.47v15.36h-15.47z"/><path class="cls-2" d="M278.42 383.97h15.47v15.36h-15.47z"/><path class="cls-8" d="M278.42 368.61h15.47v15.36h-15.47zm0-15.36h15.47v15.35h-15.47z"/><path class="cls-2" d="M278.42 337.89h15.47v15.36h-15.47zm0-15.36h15.47v15.36h-15.47z"/><path class="cls-2" d="M278.42 307.18h15.47v15.35h-15.47z"/><path class="cls-3" d="M278.42 291.82h15.47v15.36h-15.47z"/><path class="cls-4" d="M262.95 414.69h15.47v15.35h-15.47z"/><path class="cls-1" d="M262.95 399.33h15.47v15.36h-15.47z"/><path class="cls-2" d="M262.95 383.97h15.47v15.36h-15.47zm0-15.36h15.47v15.36h-15.47zm0-15.36h15.47v15.35h-15.47z"/><path class="cls-8" d="M262.95 337.89h15.47v15.36h-15.47z"/><path class="cls-2" d="M262.95 322.53h15.47v15.36h-15.47z"/><path class="cls-9" d="M262.95 307.18h15.47v15.35h-15.47z"/><path class="cls-3" d="M262.95 291.82h15.47v15.36h-15.47z"/><path class="cls-5" d="M247.49 414.69h15.46v15.35h-15.46z"/><path class="cls-2" d="M247.49 399.33h15.46v15.36h-15.46z"/><path class="cls-2" d="M247.49 383.97h15.46v15.36h-15.46zm0-15.36h15.46v15.36h-15.46zm0-15.36h15.46v15.35h-15.46zm0-15.36h15.46v15.36h-15.46z"/><path fill="#ea0a3b" d="M247.49 322.53h15.46v15.36h-15.46z"/><path class="cls-9" d="M247.49 307.18h15.46v15.35h-15.46z"/><path class="cls-3" d="M247.49 291.82h15.46v15.36h-15.46z"/><path class="cls-5" d="M232.02 414.69h15.47v15.35h-15.47z"/><path class="cls-2" d="M232.02 399.33h15.47v15.36h-15.47z"/><path class="cls-2" d="M232.02 383.97h15.47v15.36h-15.47zm0-15.36h15.47v15.36h-15.47zm0-15.36h15.47v15.35h-15.47zm0-15.36h15.47v15.36h-15.47zm0-15.36h15.47v15.36h-15.47z"/><path class="cls-9" d="M232.02 307.18h15.47v15.35h-15.47z"/><path class="cls-3" d="M232.02 291.82h15.47v15.36h-15.47z"/><path class="cls-11" d="M216.55 844.74h15.47v15.35h-15.47zm0-15.37h15.47v15.36h-15.47z"/><path class="cls-9" d="M216.55 399.33h15.47v15.36h-15.47z"/><path class="cls-9" d="M216.55 383.97h15.47v15.36h-15.47zm0-15.36h15.47v15.36h-15.47zm0-15.36h15.47v15.35h-15.47zm0-15.36h15.47v15.36h-15.47zm0-15.36h15.47v15.36h-15.47z"/><path class="cls-9" d="M216.55 307.18h15.47v15.35h-15.47z"/><path class="cls-3" d="M216.55 291.82h15.47v15.36h-15.47z"/><path class="cls-12" d="M216.55 276.45h15.47v15.36h-15.47z"/><path class="cls-13" d="M216.55 261.1h15.47v15.35h-15.47zm0-15.36h15.47v15.36h-15.47z"/><path class="cls-14" d="M216.55 199.67h15.47v15.36h-15.47zm0-30.72h15.47v15.35h-15.47zm0-92.15h15.47v15.35h-15.47z"/><path class="cls-11" d="M201.09 844.74h15.46v15.35h-15.46zm0-15.37h15.46v15.36h-15.46zm0-15.36h15.46v15.36h-15.46z"/><path class="cls-15" d="M201.09 660.42h15.46v15.36h-15.46z"/><path class="cls-15" d="M201.09 645.07h15.46v15.35h-15.46zm0-15.36h15.46v15.36h-15.46zm0-15.36h15.46v15.36h-15.46zm0-15.35h15.46v15.35h-15.46z"/><path class="cls-16" d="M201.09 583.63h15.46v15.36h-15.46zm0-15.36h15.46v15.36h-15.46zm0-15.35h15.46v15.35h-15.46zm0-15.36h15.46v15.36h-15.46zm0-15.37h15.46v15.36h-15.46zm0-15.35h15.46v15.35h-15.46z"/><path class="cls-15" d="M201.09 491.48h15.46v15.36h-15.46zm0-15.36h15.46v15.36h-15.46zm0-15.35h15.46v15.35h-15.46z"/><path class="cls-15" d="M201.09 445.41h15.46v15.36h-15.46z"/><path class="cls-12" d="M201.09 430.04h15.46v15.36h-15.46z"/><path class="cls-4" d="M201.09 414.69h15.46v15.35h-15.46z"/><path class="cls-3" d="M201.09 399.33h15.46v15.36h-15.46z"/><path class="cls-3" d="M201.09 383.97h15.46v15.36h-15.46zm0-15.36h15.46v15.36h-15.46zm0-15.36h15.46v15.35h-15.46zm0-15.36h15.46v15.36h-15.46zm0-15.36h15.46v15.36h-15.46z"/><path class="cls-3" d="M201.09 307.18h15.46v15.35h-15.46zm0-15.36h15.46v15.36h-15.46z"/><path class="cls-12" d="M201.09 276.45h15.46v15.36h-15.46z"/><path class="cls-13" d="M201.09 261.1h15.46v15.35h-15.46zm0-15.36h15.46v15.36h-15.46zm0-15.36h15.46v15.36h-15.46z"/><path class="cls-17" d="M201.09 215.03h15.46v15.35h-15.46z"/><path class="cls-18" d="M201.09 199.67h15.46v15.36h-15.46z"/><path class="cls-14" d="M201.09 184.3h15.46v15.36h-15.46zm0-46.07h15.46v15.36h-15.46zm0-15.35h15.46v15.35h-15.46z"/><path class="cls-19" d="M201.09 76.8h15.46v15.35h-15.46z"/><path class="cls-20" d="M201.09 61.44h15.46V76.8h-15.46zm0-15.36h15.46v15.36h-15.46z"/><path class="cls-21" d="M185.61 844.74h15.47v15.35h-15.47z"/><path class="cls-11" d="M185.61 829.37h15.47v15.36h-15.47z"/><path class="cls-22" d="M185.61 814.01h15.47v15.36h-15.47z"/><path class="cls-4" d="M185.61 798.66h15.47v15.35h-15.47z"/><path class="cls-15" d="M185.61 783.3h15.47v15.36h-15.47z"/><path class="cls-15" d="M185.61 767.94h15.47v15.36h-15.47zm0-15.36h15.47v15.35h-15.47zm0-15.36h15.47v15.36h-15.47zm0-15.36h15.47v15.36h-15.47zm0-15.36h15.47v15.36h-15.47zm0-15.35h15.47v15.35h-15.47zm0-15.37h15.47v15.36h-15.47zm0-15.36h15.47v15.36h-15.47z"/><path class="cls-15" d="M185.61 645.07h15.47v15.35h-15.47zm0-15.36h15.47v15.36h-15.47zm0-15.36h15.47v15.36h-15.47zm0-15.35h15.47v15.35h-15.47zm0-15.37h15.47v15.36h-15.47z"/><path class="cls-16" d="M185.61 568.27h15.47v15.36h-15.47zm0-15.35h15.47v15.35h-15.47zm0-15.36h15.47v15.36h-15.47z"/><path class="cls-15" d="M185.61 522.19h15.47v15.36h-15.47zm0-15.35h15.47v15.35h-15.47zM185.61 491.48h15.47v15.36h-15.47zm0-15.36h15.47v15.36h-15.47zm0-15.35h15.47v15.35h-15.47z"/><path class="cls-15" d="M185.61 445.41h15.47v15.36h-15.47z"/><path class="cls-12" d="M185.61 430.04h15.47v15.36h-15.47z"/><path class="cls-4" d="M185.61 414.69h15.47v15.35h-15.47z"/><path class="cls-23" d="M185.61 399.33h15.47v15.36h-15.47z"/><path class="cls-1" d="M185.61 383.97h15.47v15.36h-15.47z"/><path class="cls-12" d="M185.61 368.61h15.47v15.36h-15.47zm0-15.36h15.47v15.35h-15.47zm0-15.36h15.47v15.36h-15.47zm0-15.36h15.47v15.36h-15.47z"/><path class="cls-12" d="M185.61 307.18h15.47v15.35h-15.47zm0-15.36h15.47v15.36h-15.47zm0-15.37h15.47v15.36h-15.47z"/><path class="cls-13" d="M185.61 261.1h15.47v15.35h-15.47zm0-15.36h15.47v15.36h-15.47zm0-15.36h15.47v15.36h-15.47zm0-15.35h15.47v15.35h-15.47zm0-15.36h15.47v15.36h-15.47z"/><path class="cls-19" d="M185.61 184.3h15.47v15.36h-15.47z"/><path class="cls-14" d="M185.61 168.95h15.47v15.35h-15.47zm0-15.36h15.47v15.36h-15.47zm0-15.36h15.47v15.36h-15.47z"/><path class="cls-19" d="M185.61 122.88h15.47v15.35h-15.47zm0-15.37h15.47v15.36h-15.47zm0-15.36h15.47v15.36h-15.47z"/><path class="cls-24" d="M185.61 76.8h15.47v15.35h-15.47zm0-15.36h15.47V76.8h-15.47z"/><path class="cls-20" d="M185.61 46.08h15.47v15.36h-15.47zm0-15.37h15.47v15.36h-15.47z"/><path class="cls-25" d="M170.14 844.74h15.47v15.35h-15.47z"/><path class="cls-21" d="M170.14 829.37h15.47v15.36h-15.47z"/><path fill="#c7c7f9" d="M170.14 814.01h15.47v15.36h-15.47z"/><path class="cls-5" d="M170.14 798.66h15.47v15.35h-15.47z"/><path class="cls-27" d="M170.14 783.3h15.47v15.36h-15.47z"/><path class="cls-27" d="M170.14 767.94h15.47v15.36h-15.47zm0-15.36h15.47v15.35h-15.47zm0-15.36h15.47v15.36h-15.47zm0-15.36h15.47v15.36h-15.47zm0-15.36h15.47v15.36h-15.47zm0-15.35h15.47v15.35h-15.47zm0-15.37h15.47v15.36h-15.47zm0-15.36h15.47v15.36h-15.47z"/><path class="cls-27" d="M170.14 645.07h15.47v15.35h-15.47zm0-15.36h15.47v15.36h-15.47zm0-15.36h15.47v15.36h-15.47zm0-15.35h15.47v15.35h-15.47zm0-15.37h15.47v15.36h-15.47zm0-15.36h15.47v15.36h-15.47zm0-15.35h15.47v15.35h-15.47z"/><path class="cls-15" d="M170.14 537.56h15.47v15.36h-15.47zm0-15.37h15.47v15.36h-15.47zm0-15.35h15.47v15.35h-15.47z"/><path class="cls-15" d="M170.14 491.48h15.47v15.36h-15.47zm0-15.36h15.47v15.36h-15.47zm0-15.35h15.47v15.35h-15.47z"/><path class="cls-15" d="M170.14 445.41h15.47v15.36h-15.47z"/><path class="cls-12" d="M170.14 430.04h15.47v15.36h-15.47z"/><path class="cls-4" d="M170.14 414.69h15.47v15.35h-15.47zm0-15.36h15.47v15.36h-15.47z"/><path class="cls-1" d="M170.14 383.97h15.47v15.36h-15.47z"/><path class="cls-12" d="M170.14 368.61h15.47v15.36h-15.47zm0-15.36h15.47v15.35h-15.47zm0-15.36h15.47v15.36h-15.47zm0-15.36h15.47v15.36h-15.47z"/><path class="cls-12" d="M170.14 307.18h15.47v15.35h-15.47z"/><path class="cls-28" d="M170.14 291.82h15.47v15.36h-15.47zm0-15.37h15.47v15.36h-15.47z"/><path class="cls-28" d="M170.14 261.1h15.47v15.35h-15.47zm0-15.36h15.47v15.36h-15.47zm0-15.36h15.47v15.36h-15.47zm0-15.35h15.47v15.35h-15.47z"/><path class="cls-13" d="M170.14 199.67h15.47v15.36h-15.47z"/><path class="cls-18" d="M170.14 184.3h15.47v15.36h-15.47z"/><path class="cls-19" d="M170.14 168.95h15.47v15.35h-15.47zm0-15.36h15.47v15.36h-15.47z"/><path class="cls-4" d="M170.14 138.23h15.47v15.36h-15.47zm0-15.35h15.47v15.35h-15.47z"/><path class="cls-29" d="M170.14 107.51h15.47v15.36h-15.47z"/><path class="cls-30" d="M170.14 92.15h15.47v15.36h-15.47z"/><path class="cls-31" d="M170.14 76.8h15.47v15.35h-15.47z"/><path class="cls-19" d="M170.14 61.44h15.47V76.8h-15.47z"/><path class="cls-24" d="M170.14 46.08h15.47v15.36h-15.47z"/><path class="cls-20" d="M170.14 30.71h15.47v15.36h-15.47zm0-15.35h15.47v15.35h-15.47z"/><path class="cls-32" d="M154.68 844.74h15.46v15.35h-15.46z"/><path class="cls-25" d="M154.68 829.37h15.46v15.36h-15.46zm0-15.36h15.46v15.36h-15.46z"/><path class="cls-33" d="M154.68 783.3h15.46v15.36h-15.46z"/><path class="cls-33" d="M154.68 767.94h15.46v15.36h-15.46zm0-15.36h15.46v15.35h-15.46zm0-15.36h15.46v15.36h-15.46zm0-15.36h15.46v15.36h-15.46zm0-15.36h15.46v15.36h-15.46zm0-15.35h15.46v15.35h-15.46zm0-15.37h15.46v15.36h-15.46zm0-15.36h15.46v15.36h-15.46z"/><path class="cls-33" d="M154.68 645.07h15.46v15.35h-15.46zm0-15.36h15.46v15.36h-15.46zm0-15.36h15.46v15.36h-15.46z"/><path class="cls-34" d="M154.68 599h15.46v15.35h-15.46zm0-15.37h15.46v15.36h-15.46zm0-15.36h15.46v15.36h-15.46zm0-15.35h15.46v15.35h-15.46zm0-15.36h15.46v15.36h-15.46zm0-15.37h15.46v15.36h-15.46z"/><path class="cls-15" d="M154.68 506.84h15.46v15.35h-15.46z"/><path class="cls-15" d="M154.68 491.48h15.46v15.36h-15.46zm0-15.36h15.46v15.36h-15.46zm0-15.35h15.46v15.35h-15.46z"/><path class="cls-15" d="M154.68 445.41h15.46v15.36h-15.46z"/><path class="cls-12" d="M154.68 430.04h15.46v15.36h-15.46z"/><path class="cls-5" d="M154.68 414.69h15.46v15.35h-15.46z"/><path class="cls-23" d="M154.68 399.33h15.46v15.36h-15.46z"/><path class="cls-12" d="M154.68 383.97h15.46v15.36h-15.46zm0-15.36h15.46v15.36h-15.46zm0-15.36h15.46v15.35h-15.46z"/><path class="cls-28" d="M154.68 337.89h15.46v15.36h-15.46zm0-15.36h15.46v15.36h-15.46z"/><path class="cls-28" d="M154.68 307.18h15.46v15.35h-15.46z"/><path class="cls-12" d="M154.68 291.82h15.46v15.36h-15.46zm0-15.37h15.46v15.36h-15.46z"/><path class="cls-13" d="M154.68 261.1h15.46v15.35h-15.46zm0-15.36h15.46v15.36h-15.46zm0-15.36h15.46v15.36h-15.46zm0-15.35h15.46v15.35h-15.46z"/><path class="cls-28" d="M154.68 199.67h15.46v15.36h-15.46zm0-15.37h15.46v15.36h-15.46z"/><path class="cls-18" d="M154.68 168.95h15.46v15.35h-15.46z"/><path class="cls-4" d="M154.68 153.59h15.46v15.36h-15.46z"/><path fill="#e8b3b3" d="M154.68 138.23h15.46v15.36h-15.46z"/><path class="cls-36" d="M154.68 122.88h15.46v15.35h-15.46zm0-15.37h15.46v15.36h-15.46z"/><path class="cls-37" d="M154.68 92.15h15.46v15.36h-15.46z"/><path class="cls-36" d="M154.68 76.8h15.46v15.35h-15.46zm0-15.36h15.46V76.8h-15.46zm0-15.36h15.46v15.36h-15.46z"/><path class="cls-24" d="M154.68 30.71h15.46v15.36h-15.46z"/><path class="cls-20" d="M154.68 15.36h15.46v15.35h-15.46z"/><path class="cls-34" d="M139.21 506.84h15.47v15.35h-15.47z"/><path class="cls-15" d="M139.21 491.48h15.47v15.36h-15.47zm0-15.36h15.47v15.36h-15.47zm0-15.35h15.47v15.35h-15.47z"/><path class="cls-15" d="M139.21 445.41h15.47v15.36h-15.47z"/><path class="cls-12" d="M139.21 430.04h15.47v15.36h-15.47z"/><path class="cls-5" d="M139.21 414.69h15.47v15.35h-15.47z"/><path class="cls-23" d="M139.21 399.33h15.47v15.36h-15.47z"/><path class="cls-12" d="M139.21 383.97h15.47v15.36h-15.47z"/><path class="cls-28" d="M139.21 368.61h15.47v15.36h-15.47zm0-15.36h15.47v15.35h-15.47z"/><path class="cls-12" d="M139.21 337.89h15.47v15.36h-15.47zm0-15.36h15.47v15.36h-15.47z"/><path class="cls-12" d="M139.21 307.18h15.47v15.35h-15.47zm0-15.36h15.47v15.36h-15.47zm0-15.37h15.47v15.36h-15.47z"/><path class="cls-13" d="M139.21 261.1h15.47v15.35h-15.47zm0-15.36h15.47v15.36h-15.47z"/><path class="cls-4" d="M139.21 230.38h15.47v15.36h-15.47zm0-15.35h15.47v15.35h-15.47zm0-15.36h15.47v15.36h-15.47z"/><path class="cls-5" d="M139.21 184.3h15.47v15.36h-15.47z"/><path class="cls-38" d="M139.21 168.95h15.47v15.35h-15.47z"/><path class="cls-4" d="M139.21 153.59h15.47v15.36h-15.47zm0-15.36h15.47v15.36h-15.47zm0-15.35h15.47v15.35h-15.47zm0-15.37h15.47v15.36h-15.47z"/><path class="cls-29" d="M139.21 92.15h15.47v15.36h-15.47z"/><path class="cls-31" d="M139.21 76.8h15.47v15.35h-15.47z"/><path class="cls-36" d="M139.21 61.44h15.47V76.8h-15.47zm0-15.36h15.47v15.36h-15.47z"/><path class="cls-24" d="M139.21 30.71h15.47v15.36h-15.47z"/><path class="cls-20" d="M139.21 15.36h15.47v15.35h-15.47z"/><path class="cls-19" d="M139.21 0h15.47v15.36h-15.47z"/><path class="cls-11" d="M123.74 844.74h15.47v15.35h-15.47zm0-15.37h15.47v15.36h-15.47z"/><path class="cls-34" d="M123.74 522.19h15.47v15.36h-15.47zm0-15.35h15.47v15.35h-15.47z"/><path class="cls-15" d="M123.74 491.48h15.47v15.36h-15.47zm0-15.36h15.47v15.36h-15.47zm0-15.35h15.47v15.35h-15.47z"/><path class="cls-15" d="M123.74 445.41h15.47v15.36h-15.47z"/><path class="cls-12" d="M123.74 430.04h15.47v15.36h-15.47z"/><path class="cls-5" d="M123.74 414.69h15.47v15.35h-15.47z"/><path class="cls-4" d="M123.74 399.33h15.47v15.36h-15.47z"/><path class="cls-28" d="M123.74 383.97h15.47v15.36h-15.47z"/><path class="cls-12" d="M123.74 368.61h15.47v15.36h-15.47zm0-15.36h15.47v15.35h-15.47zm0-15.36h15.47v15.36h-15.47zm0-15.36h15.47v15.36h-15.47z"/><path class="cls-12" d="M123.74 307.18h15.47v15.35h-15.47zm0-15.36h15.47v15.36h-15.47zm0-15.37h15.47v15.36h-15.47z"/><path class="cls-13" d="M123.74 261.1h15.47v15.35h-15.47zm0-15.36h15.47v15.36h-15.47zm0-15.36h15.47v15.36h-15.47z"/><path d="M123.74 215.03h15.47v15.35h-15.47zm0-15.36h15.47v15.36h-15.47zm0-15.37h15.47v15.36h-15.47z" fill="#e8d1c5"/><path class="cls-38" d="M123.74 168.95h15.47v15.35h-15.47z"/><path class="cls-4" d="M123.74 153.59h15.47v15.36h-15.47zm0-15.36h15.47v15.36h-15.47zm0-15.35h15.47v15.35h-15.47z"/><path class="cls-29" d="M123.74 107.51h15.47v15.36h-15.47z"/><path class="cls-30" d="M123.74 92.15h15.47v15.36h-15.47z"/><path class="cls-40" d="M123.74 76.8h15.47v15.35h-15.47z"/><path class="cls-19" d="M123.74 61.44h15.47V76.8h-15.47z"/><path class="cls-36" d="M123.74 46.08h15.47v15.36h-15.47z"/><path class="cls-20" d="M123.74 30.71h15.47v15.36h-15.47zm0-15.35h15.47v15.35h-15.47z"/><path class="cls-19" d="M123.74 0h15.47v15.36h-15.47z"/><path class="cls-11" d="M108.28 844.74h15.46v15.35h-15.46zm0-15.37h15.46v15.36h-15.46zm0-15.36h15.46v15.36h-15.46z"/><path class="cls-15" d="M108.28 660.42h15.46v15.36h-15.46z"/><path class="cls-15" d="M108.28 645.07h15.46v15.35h-15.46zm0-15.36h15.46v15.36h-15.46zm0-15.36h15.46v15.36h-15.46zm0-15.35h15.46v15.35h-15.46z"/><path class="cls-16" d="M108.28 583.63h15.46v15.36h-15.46zm0-15.36h15.46v15.36h-15.46zm0-15.35h15.46v15.35h-15.46zm0-15.36h15.46v15.36h-15.46zm0-15.37h15.46v15.36h-15.46z"/><path class="cls-15" d="M108.28 506.84h15.46v15.35h-15.46z"/><path class="cls-15" d="M108.28 491.48h15.46v15.36h-15.46zm0-15.36h15.46v15.36h-15.46zm0-15.35h15.46v15.35h-15.46z"/><path class="cls-15" d="M108.28 445.41h15.46v15.36h-15.46z"/><path class="cls-12" d="M108.28 430.04h15.46v15.36h-15.46z"/><path class="cls-5" d="M108.28 414.69h15.46v15.35h-15.46z"/><path class="cls-4" d="M108.28 399.33h15.46v15.36h-15.46z"/><path class="cls-12" d="M108.28 383.97h15.46v15.36h-15.46zm0-15.36h15.46v15.36h-15.46zm0-15.36h15.46v15.35h-15.46zm0-15.36h15.46v15.36h-15.46zm0-15.36h15.46v15.36h-15.46z"/><path class="cls-12" d="M108.28 307.18h15.46v15.35h-15.46zm0-15.36h15.46v15.36h-15.46zm0-15.37h15.46v15.36h-15.46z"/><path class="cls-13" d="M108.28 261.1h15.46v15.35h-15.46zm0-15.36h15.46v15.36h-15.46zm0-15.36h15.46v15.36h-15.46zm0-15.35h15.46v15.35h-15.46z"/><path d="M108.28 199.67h15.46v15.36h-15.46zm0-15.37h15.46v15.36h-15.46zm0-15.35h15.46v15.35h-15.46z" fill="#edd4c8"/><path class="cls-38" d="M108.28 153.59h15.46v15.36h-15.46z"/><path class="cls-4" d="M108.28 138.23h15.46v15.36h-15.46zm0-15.35h15.46v15.35h-15.46zm0-15.37h15.46v15.36h-15.46z"/><path class="cls-40" d="M108.28 92.15h15.46v15.36h-15.46zm0-15.35h15.46v15.35h-15.46z"/><path class="cls-36" d="M108.28 61.44h15.46V76.8h-15.46z"/><path class="cls-20" d="M108.28 46.08h15.46v15.36h-15.46zm0-15.37h15.46v15.36h-15.46z"/><path class="cls-19" d="M108.28 15.36h15.46v15.35h-15.46zm0-15.36h15.46v15.36h-15.46z"/><path class="cls-21" d="M92.81 844.74h15.47v15.35H92.81z"/><path class="cls-11" d="M92.81 829.37h15.47v15.36H92.81z"/><path class="cls-22" d="M92.81 814.01h15.47v15.36H92.81z"/><path class="cls-4" d="M92.81 798.66h15.47v15.35H92.81z"/><path class="cls-15" d="M92.81 783.3h15.47v15.36H92.81z"/><path class="cls-15" d="M92.81 767.94h15.47v15.36H92.81zm0-15.36h15.47v15.35H92.81zm0-15.36h15.47v15.36H92.81zm0-15.36h15.47v15.36H92.81zm0-15.36h15.47v15.36H92.81zm0-15.35h15.47v15.35H92.81zm0-15.37h15.47v15.36H92.81zm0-15.36h15.47v15.36H92.81z"/><path class="cls-15" d="M92.81 645.07h15.47v15.35H92.81zm0-15.36h15.47v15.36H92.81zm0-15.36h15.47v15.36H92.81zm0-15.35h15.47v15.35H92.81zm0-15.37h15.47v15.36H92.81z"/><path class="cls-16" d="M92.81 568.27h15.47v15.36H92.81zm0-15.35h15.47v15.35H92.81zm0-15.36h15.47v15.36H92.81z"/><path class="cls-15" d="M92.81 522.19h15.47v15.36H92.81zm0-15.35h15.47v15.35H92.81zM92.81 491.48h15.47v15.36H92.81zm0-15.36h15.47v15.36H92.81zm0-15.35h15.47v15.35H92.81z"/><path class="cls-15" d="M92.81 445.41h15.47v15.36H92.81z"/><path class="cls-42" d="M92.81 430.04h15.47v15.36H92.81z"/><path class="cls-5" d="M92.81 414.69h15.47v15.35H92.81z"/><path class="cls-4" d="M92.81 399.33h15.47v15.36H92.81z"/><path class="cls-12" d="M92.81 383.97h15.47v15.36H92.81zm0-15.36h15.47v15.36H92.81zm0-15.36h15.47v15.35H92.81zm0-15.36h15.47v15.36H92.81zm0-15.36h15.47v15.36H92.81z"/><path class="cls-12" d="M92.81 307.18h15.47v15.35H92.81zm0-15.36h15.47v15.36H92.81zm0-15.37h15.47v15.36H92.81z"/><path class="cls-13" d="M92.81 261.1h15.47v15.35H92.81zm0-15.36h15.47v15.36H92.81zm0-15.36h15.47v15.36H92.81zm0-15.35h15.47v15.35H92.81zm0-15.36h15.47v15.36H92.81z"/><path class="cls-17" d="M92.81 184.3h15.47v15.36H92.81z"/><path class="cls-18" d="M92.81 168.95h15.47v15.35H92.81zm0-15.36h15.47v15.36H92.81z"/><path class="cls-38" d="M92.81 138.23h15.47v15.36H92.81z"/><path class="cls-4" d="M92.81 122.88h15.47v15.35H92.81zm0-15.37h15.47v15.36H92.81z"/><path class="cls-37" d="M92.81 92.15h15.47v15.36H92.81z"/><path class="cls-36" d="M92.81 76.8h15.47v15.35H92.81z"/><path class="cls-20" d="M92.81 61.44h15.47V76.8H92.81zm0-15.36h15.47v15.36H92.81z"/><path class="cls-19" d="M92.81 30.71h15.47v15.36H92.81zm0-15.35h15.47v15.35H92.81z"/><path class="cls-18" d="M92.81 0h15.47v15.36H92.81z"/><path class="cls-25" d="M77.34 844.74h15.47v15.35H77.34z"/><path class="cls-21" d="M77.34 829.37h15.47v15.36H77.34z"/><path class="cls-22" d="M77.34 814.01h15.47v15.36H77.34z"/><path class="cls-5" d="M77.34 798.66h15.47v15.35H77.34z"/><path class="cls-27" d="M77.34 783.3h15.47v15.36H77.34z"/><path class="cls-27" d="M77.34 767.94h15.47v15.36H77.34zm0-15.36h15.47v15.35H77.34zm0-15.36h15.47v15.36H77.34zm0-15.36h15.47v15.36H77.34zm0-15.36h15.47v15.36H77.34zm0-15.35h15.47v15.35H77.34zm0-15.37h15.47v15.36H77.34zm0-15.36h15.47v15.36H77.34z"/><path class="cls-27" d="M77.34 645.07h15.47v15.35H77.34zm0-15.36h15.47v15.36H77.34zm0-15.36h15.47v15.36H77.34zm0-15.35h15.47v15.35H77.34zm0-15.37h15.47v15.36H77.34zm0-15.36h15.47v15.36H77.34zm0-15.35h15.47v15.35H77.34zm0-15.36h15.47v15.36H77.34z"/><path class="cls-15" d="M77.34 522.19h15.47v15.36H77.34zm0-15.35h15.47v15.35H77.34z"/><path d="M77.34 491.48h15.47v15.36H77.34zm0-15.36h15.47v15.36H77.34z" fill="#441f1c"/><path class="cls-44" d="M77.34 460.77h15.47v15.35H77.34z"/><path class="cls-44" d="M77.34 445.41h15.47v15.36H77.34z"/><path class="cls-12" d="M77.34 430.04h15.47v15.36H77.34z"/><path class="cls-5" d="M77.34 414.69h15.47v15.35H77.34z"/><path class="cls-25" d="M77.34 399.33h15.47v15.36H77.34z"/><path class="cls-12" d="M77.34 383.97h15.47v15.36H77.34zm0-15.36h15.47v15.36H77.34zm0-15.36h15.47v15.35H77.34zm0-15.36h15.47v15.36H77.34zm0-15.36h15.47v15.36H77.34z"/><path class="cls-12" d="M77.34 307.18h15.47v15.35H77.34zm0-15.36h15.47v15.36H77.34zm0-15.37h15.47v15.36H77.34z"/><path class="cls-13" d="M77.34 261.1h15.47v15.35H77.34zm0-15.36h15.47v15.36H77.34zm0-15.36h15.47v15.36H77.34zm0-15.35h15.47v15.35H77.34z"/><path class="cls-17" d="M77.34 199.67h15.47v15.36H77.34z"/><path class="cls-18" d="M77.34 184.3h15.47v15.36H77.34z"/><path class="cls-19" d="M77.34 168.95h15.47v15.35H77.34zm0-15.36h15.47v15.36H77.34zm0-15.36h15.47v15.36H77.34z"/><path class="cls-18" d="M77.34 122.88h15.47v15.35H77.34z"/><path class="cls-4" d="M77.34 107.51h15.47v15.36H77.34zm0-15.36h15.47v15.36H77.34z"/><path class="cls-14" d="M77.34 76.8h15.47v15.35H77.34zm0-15.36h15.47V76.8H77.34z"/><path class="cls-19" d="M77.34 46.08h15.47v15.36H77.34zm0-15.37h15.47v15.36H77.34z"/><path class="cls-18" d="M77.34 15.36h15.47v15.35H77.34z"/><path class="cls-25" d="M61.88 844.74h15.46v15.35H61.88zm0-15.37h15.46v15.36H61.88zm0-15.36h15.46v15.36H61.88z"/><path class="cls-33" d="M61.88 783.3h15.46v15.36H61.88z"/><path class="cls-33" d="M61.88 767.94h15.46v15.36H61.88zm0-15.36h15.46v15.35H61.88zm0-15.36h15.46v15.36H61.88zm0-15.36h15.46v15.36H61.88zm0-15.36h15.46v15.36H61.88zm0-15.35h15.46v15.35H61.88zm0-15.37h15.46v15.36H61.88zm0-15.36h15.46v15.36H61.88z"/><path class="cls-33" d="M61.88 645.07h15.46v15.35H61.88zm0-15.36h15.46v15.36H61.88zm0-15.36h15.46v15.36H61.88z"/><path class="cls-34" d="M61.88 599h15.46v15.35H61.88zm0-15.37h15.46v15.36H61.88zm0-15.36h15.46v15.36H61.88zm0-15.35h15.46v15.35H61.88zm0-15.36h15.46v15.36H61.88zm0-15.37h15.46v15.36H61.88z"/><path class="cls-27" d="M61.88 506.84h15.46v15.35H61.88z"/><path class="cls-28" d="M61.88 491.48h15.46v15.36H61.88zm0-15.36h15.46v15.36H61.88zm0-15.35h15.46v15.35H61.88z"/><path class="cls-28" d="M61.88 445.41h15.46v15.36H61.88z"/><path class="cls-12" d="M61.88 430.04h15.46v15.36H61.88z"/><path class="cls-25" d="M61.88 414.69h15.46v15.35H61.88zm0-15.36h15.46v15.36H61.88z"/><path class="cls-25" d="M61.88 383.97h15.46v15.36H61.88z"/><path class="cls-12" d="M61.88 368.61h15.46v15.36H61.88zm0-15.36h15.46v15.35H61.88zm0-15.36h15.46v15.36H61.88zm0-15.36h15.46v15.36H61.88z"/><path class="cls-12" d="M61.88 307.18h15.46v15.35H61.88zm0-15.36h15.46v15.36H61.88zm0-15.37h15.46v15.36H61.88z"/><path class="cls-13" d="M61.88 261.1h15.46v15.35H61.88zm0-15.36h15.46v15.36H61.88zm0-15.36h15.46v15.36H61.88z"/><path class="cls-45" d="M61.88 215.03h15.46v15.35H61.88z"/><path class="cls-17" d="M61.88 199.67h15.46v15.36H61.88z"/><path class="cls-18" d="M61.88 184.3h15.46v15.36H61.88z"/><path class="cls-14" d="M61.88 168.95h15.46v15.35H61.88zm0-15.36h15.46v15.36H61.88zm0-15.36h15.46v15.36H61.88zm0-15.35h15.46v15.35H61.88zm0-15.37h15.46v15.36H61.88zm0-15.36h15.46v15.36H61.88zm0-15.35h15.46v15.35H61.88z"/><path class="cls-19" d="M61.88 61.44h15.46V76.8H61.88zm0-15.36h15.46v15.36H61.88z"/><path class="cls-18" d="M61.88 30.71h15.46v15.36H61.88z"/><path class="cls-34" d="M46.4 537.56h15.47v15.36H46.4zm0-15.37h15.47v15.36H46.4zm0-15.35h15.47v15.35H46.4z"/><path class="cls-28" d="M46.4 491.48h15.47v15.36H46.4zm0-15.36h15.47v15.36H46.4z"/><path class="cls-46" d="M46.4 460.77h15.47v15.35H46.4z"/><path class="cls-47" d="M46.4 445.41h15.47v15.36H46.4z"/><path class="cls-12" d="M46.4 430.04h15.47v15.36H46.4zm0-15.35h15.47v15.35H46.4z"/><path class="cls-32" d="M46.4 399.33h15.47v15.36H46.4z"/><path class="cls-25" d="M46.4 383.97h15.47v15.36H46.4zm0-15.36h15.47v15.36H46.4z"/><path class="cls-12" d="M46.4 291.82h15.47v15.36H46.4z"/><path class="cls-13" d="M46.4 276.45h15.47v15.36H46.4z"/><path class="cls-13" d="M46.4 261.1h15.47v15.35H46.4zm0-15.36h15.47v15.36H46.4z"/><path class="cls-45" d="M46.4 230.38h15.47v15.36H46.4z"/><path class="cls-17" d="M46.4 215.03h15.47v15.35H46.4z"/><path class="cls-18" d="M46.4 199.67h15.47v15.36H46.4z"/><path class="cls-19" d="M46.4 184.3h15.47v15.36H46.4z"/><path class="cls-14" d="M46.4 168.95h15.47v15.35H46.4zm0-15.36h15.47v15.36H46.4zm0-15.36h15.47v15.36H46.4z"/><path class="cls-19" d="M46.4 122.88h15.47v15.35H46.4zm0-15.37h15.47v15.36H46.4z"/><path class="cls-14" d="M46.4 92.15h15.47v15.36H46.4zm0-15.35h15.47v15.35H46.4z"/><path class="cls-19" d="M46.4 61.44h15.47V76.8H46.4z"/><path class="cls-18" d="M46.4 46.08h15.47v15.36H46.4z"/><path class="cls-28" d="M30.93 491.48H46.4v15.36H30.93z"/><path class="cls-46" d="M30.93 476.12H46.4v15.36H30.93z"/><path class="cls-47" d="M30.93 460.77H46.4v15.35H30.93z"/><path class="cls-48" d="M30.93 445.41H46.4v15.36H30.93z"/><path class="cls-28" d="M30.93 414.69H46.4v15.35H30.93z"/><path class="cls-32" d="M30.93 399.33H46.4v15.36H30.93z"/><path class="cls-32" d="M30.93 383.97H46.4v15.36H30.93z"/><path class="cls-25" d="M30.93 368.61H46.4v15.36H30.93zm0-15.36H46.4v15.35H30.93z"/><path class="cls-12" d="M30.93 337.89H46.4v15.36H30.93zm0-15.36H46.4v15.36H30.93z"/><path class="cls-12" d="M30.93 307.18H46.4v15.35H30.93z"/><path class="cls-13" d="M30.93 291.82H46.4v15.36H30.93zm0-15.37H46.4v15.36H30.93z"/><path class="cls-13" d="M30.93 261.1H46.4v15.35H30.93z"/><path class="cls-17" d="M30.93 245.74H46.4v15.36H30.93zm0-15.36H46.4v15.36H30.93z"/><path class="cls-18" d="M30.93 215.03H46.4v15.35H30.93z"/><path class="cls-19" d="M30.93 199.67H46.4v15.36H30.93z"/><path class="cls-14" d="M30.93 184.3H46.4v15.36H30.93zm0-61.42H46.4v15.35H30.93z"/><path class="cls-19" d="M30.93 107.51H46.4v15.36H30.93zm0-15.36H46.4v15.36H30.93z"/><path class="cls-14" d="M30.93 76.8H46.4v15.35H30.93z"/><path class="cls-46" d="M15.47 491.48h15.46v15.36H15.47z"/><path class="cls-47" d="M15.47 476.12h15.46v15.36H15.47z"/><path class="cls-48" d="M15.47 460.77h15.46v15.35H15.47z"/><path class="cls-48" d="M15.47 445.41h15.46v15.36H15.47z"/><path class="cls-42" d="M15.47 430.04h15.46v15.36H15.47z"/><path class="cls-32" d="M15.47 383.97h15.46v15.36H15.47zm0-15.36h15.46v15.36H15.47z"/><path class="cls-25" d="M15.47 353.25h15.46v15.35H15.47zm0-15.36h15.46v15.36H15.47zm0-15.36h15.46v15.36H15.47z"/><path class="cls-25" d="M15.47 307.18h15.46v15.35H15.47z"/><path class="cls-13" d="M15.47 291.82h15.46v15.36H15.47zm0-15.37h15.46v15.36H15.47z"/><path class="cls-17" d="M15.47 261.1h15.46v15.35H15.47zm0-15.36h15.46v15.36H15.47z"/><path class="cls-14" d="M15.47 215.03h15.46v15.35H15.47zm0-92.15h15.46v15.35H15.47zm0-76.8h15.46v15.36H15.47z"/><path class="cls-46" d="M0 491.48h15.47v15.36H0z"/><path class="cls-48" d="M0 476.12h15.47v15.36H0zm0-15.35h15.47v15.35H0z"/><path fill="#703a3a" d="M0 445.41h15.47v15.36H0z"/><path class="cls-14" d="M0 184.3h15.47v15.36H0z"/><path class="cls-29" d="M108.27 107.51h15.47v15.36h-15.47z"/><path class="cls-40" d="M108.28 107.51h15.46v15.36h-15.46z"/></svg>
